<?xml version="1.0" encoding="UTF-8"?>
<svg width="48" height="48" data-name="Ebene 1" version="1.1" viewBox="0 0 48 48" xmlns="http://www.w3.org/2000/svg">
 <defs>
  <style>.cls-1 {
        fill: #005480;
      }

      .cls-2 {
        fill: #fff;
      }

      .cls-3 {
        fill: #e68674;
      }</style>
 </defs>
 <g transform="scale(1.0951)" style="stroke-width:.91312">
  <circle class="cls-1" cx="21.915" cy="21.915" r="21.915" style="stroke-width:.91312"/>
  <g transform="scale(.25813)" style="stroke-width:3.5375">
   <path class="cls-3" d="m124.14 53.13c-6.28 0.24-11.1 2.95-13.97 7.88v-1.65c0-3.73-2.08-5.95-5.56-5.95s-5.55 2.28-5.55 5.95c0 2.69 2.18 4.86 4.86 4.86h21.13c2.65 0 4.57-1.35 5.26-3.58 1.36-4.36-1.62-7.69-6.18-7.52z" style="stroke-width:3.5375"/>
   <path class="cls-3" d="m79.95 41.22c3.14 0 5.36 1.23 7.2 3.99 0.94 1.35 2.48 2.13 4.25 2.13 3.03 0 5.06-2.07 5.06-5.16 0-1.03-0.25-2.02-0.81-3.12-3-5.2-8.79-8.06-16.3-8.06-11.58 0-18.49 7.17-18.49 19.18v2.94h-7.14c-3.67 0-5.95 2.13-5.95 5.56 0 0.48 0.05 0.92 0.13 1.34 0.05 0.27 0.13 0.52 0.21 0.77 0.03 0.08 0.05 0.17 0.08 0.26 0.08 0.2 0.19 0.38 0.3 0.57s0.22 0.38 0.35 0.55c0.93 1.24 2.4 2.05 4.07 2.05h0.68 0.12 34.12 0.08 0.41c3.42 0 5.46-1.89 5.46-5.06 0-0.09-0.02-0.16-0.02-0.25 0-0.08 0.02-0.16 0.02-0.24 0-3.43-2.28-5.56-5.95-5.56h-15.87v-3.24c0-5.5 2.91-8.66 7.97-8.66z" style="stroke-width:3.5375"/>
  </g>
  <g transform="scale(.25813)" style="stroke-width:3.5375">
   <path class="cls-2" d="m127.6 94.9c-1.02-1.13-2.49-1.78-4.01-1.78-2.77 0-5.07 2.08-5.35 4.84-1.75 17.15-16.08 30.08-33.33 30.08s-31.58-12.93-33.33-30.08c-0.02-0.16-0.05-0.31-0.09-0.46l-0.02-0.09c-0.35-2.63-0.92-8.02-0.92-14.5 0-2.86-2.22-5.21-5.09-5.37h-11.33c-3.09 0-5.61 2.51-5.61 5.61s2.51 5.61 5.61 5.61h5.86c0.22 4.66 0.65 8.33 0.88 10.09v0.1 0.04c2.27 22.7 21.21 39.82 44.04 39.82s41.77-17.12 44.04-39.82c0.15-1.48-0.34-2.97-1.35-4.08z" style="stroke-width:3.5375"/>
   <g style="stroke-width:3.5375">
    <path class="cls-2" d="m66.43 69.54c-3.43 0-5.56 2.28-5.56 5.95v20.7c0 3.67 2.13 5.95 5.56 5.95s5.55-2.22 5.55-5.95v-20.7c0-3.73-2.08-5.95-5.55-5.95z" style="stroke-width:3.5375"/>
    <path class="cls-2" d="m104.62 69.54c-3.43 0-5.56 2.28-5.56 5.95v20.7c0 3.67 2.13 5.95 5.56 5.95s5.55-2.22 5.55-5.95v-20.7c0-3.73-2.08-5.95-5.55-5.95z" style="stroke-width:3.5375"/>
   </g>
  </g>
 </g>
</svg>
