<?xml version="1.0" encoding="UTF-8"?>
<svg width="346.56" height="107.8" id="Ebene_1" data-name="Ebene 1"
  xmlns="http://www.w3.org/2000/svg"
  viewBox="0 0 346.56 107.8">
  <path
    d="M154.74,22.13c-6.28,.24-11.1,2.95-13.97,7.88v-1.65c0-3.73-2.08-5.95-5.56-5.95s-5.55,2.28-5.55,5.95h0c0,2.69,2.18,4.86,4.86,4.86h21.13c2.65,0,4.57-1.35,5.26-3.58,1.36-4.36-1.62-7.69-6.18-7.52Z" />
  <path
    d="M158.19,63.9c-1.02-1.13-2.49-1.78-4.01-1.78-2.77,0-5.07,2.08-5.35,4.84-1.75,17.15-16.08,30.08-33.33,30.08s-31.58-12.93-33.33-30.08c-.02-.16-.05-.31-.09-.46l-.02-.09c-.35-2.63-.92-8.02-.92-14.5,0-2.86-2.22-5.21-5.09-5.37h-11.33c-3.09,0-5.61,2.51-5.61,5.61s2.51,5.61,5.61,5.61h5.86c.22,4.66,.65,8.33,.88,10.09v.1s0,.04,0,.04c2.27,22.7,21.21,39.82,44.04,39.82s41.77-17.12,44.04-39.82c.15-1.48-.34-2.97-1.35-4.08Z" />
  <g>
    <g>
      <path
        d="M268.51,21.82c-6.75,0-12.16,2.32-15.66,6.71v-.17c-.01-3.73-2.09-5.95-5.57-5.95s-5.55,2.28-5.55,5.95v36.82c0,3.67,2.13,5.95,5.55,5.95s5.56-2.22,5.56-5.95v-18.56c0-9,4.95-14.58,12.91-14.58s11.82,4.53,11.82,13.1v20.04c0,3.67,2.13,5.95,5.56,5.95s5.55-2.22,5.55-5.95v-21.23c0-7.16-1.74-12.69-5.17-16.46-3.43-3.77-8.48-5.68-15-5.68Z" />
      <path
        d="M340.91,.59c-3.31,0-5.46,2.34-5.46,5.95V28.73h-.01c-3.74-4.52-9.43-6.91-16.45-6.91s-12.7,2.37-16.86,6.85c-4.16,4.48-6.36,10.76-6.36,18.15s2.2,13.6,6.36,18.07c4.17,4.47,10,6.84,16.86,6.84s12.71-2.39,16.45-6.91v.37c.01,3.67,2.1,5.95,5.47,5.95,3.54,0,5.65-2.22,5.65-5.95V6.54c0-3.67-2.17-5.95-5.65-5.95Zm-19.74,60.91c-8.3,0-14.09-6.04-14.09-14.68,0-4.32,1.36-8.02,3.93-10.7,2.56-2.67,6.07-4.08,10.17-4.08,8.41,0,14.29,6.08,14.29,14.78s-5.88,14.68-14.29,14.68Z" />
      <path
        d="M210.32,21.82c-7.44,0-13.82,2.39-18.44,6.92-4.62,4.53-7.06,10.78-7.06,18.08,0,14.9,10.44,24.9,25.99,24.9,8.19,0,15.13-2.93,19.55-8.24,.8-1.01,1.21-2.13,1.21-3.34,0-3.13-2.06-5.16-5.26-5.16-1.65,0-2.96,.64-4.14,2.02-2.61,3.05-6.75,4.79-11.36,4.79-7.48,0-12.93-4.21-14.26-11h31.54c3.97,0,6.54-2.53,6.54-6.44v-.49c0-12.36-10.68-22.04-24.31-22.04Zm-13.76,20.04c1.52-6.15,6.9-10.12,13.76-10.12s11.93,3.87,13.47,10.12h-27.23Z" />
      <path
        d="M171.84,1.97c-3.91,0-6.54,2.67-6.54,6.64s2.63,6.64,6.54,6.64,6.64-2.61,6.64-6.64-2.61-6.64-6.64-6.64Z" />
      <path
        d="M171.84,22.41c-3.43,0-5.56,2.28-5.56,5.95v36.82c0,3.67,2.13,5.95,5.56,5.95s5.55-2.22,5.55-5.95V28.36c0-3.73-2.08-5.95-5.55-5.95Z" />
    </g>
    <path
      d="M110.55,10.22c3.14,0,5.36,1.23,7.2,3.99,.94,1.35,2.48,2.13,4.25,2.13,3.03,0,5.06-2.07,5.06-5.16,0-1.03-.25-2.02-.81-3.12-3-5.2-8.79-8.06-16.3-8.06-11.58,0-18.49,7.17-18.49,19.18v2.94h-7.14c-3.67,0-5.95,2.13-5.95,5.56,0,.48,.05,.92,.13,1.34,.05,.27,.13,.52,.21,.77,.03,.08,.05,.17,.08,.26,.08,.2,.19,.38,.3,.57,.11,.19,.22,.38,.35,.55,.93,1.24,2.4,2.05,4.07,2.05h.68s.08,0,.12,0h34.12s.05,0,.08,0h.41c3.42,0,5.46-1.89,5.46-5.06,0-.09-.02-.16-.02-.25,0-.08,.02-.16,.02-.24,0-3.43-2.28-5.56-5.95-5.56h-15.87v-3.24c0-5.5,2.91-8.66,7.97-8.66Z" />
    <path
      d="M45.24,22.41c-3.21,0-5.26,2.02-5.51,5.3-4.25-3.72-9.56-5.8-15.2-5.89-.13,0-.26,0-.39,0C11,21.82,.22,32.74,0,46.36c-.1,6.66,2.31,12.96,6.8,17.75,4.49,4.79,10.51,7.48,16.96,7.59,.13,0,.26,0,.39,0,5.92,0,11.37-2.23,15.58-5.92,.23,3.31,2.28,5.35,5.51,5.35,3.48,0,5.55-2.22,5.55-5.95V28.36c0-3.73-2.08-5.95-5.55-5.95ZM25.4,61.51c-8.3,0-14.09-6.04-14.09-14.68,0-4.32,1.36-8.02,3.93-10.7,2.56-2.67,6.07-4.08,10.17-4.08,8.41,0,14.29,6.08,14.29,14.78s-5.88,14.68-14.29,14.68Z" />
  </g>
  <g>
    <path
      d="M97.03,38.54c-3.43,0-5.56,2.28-5.56,5.95v20.7c0,3.67,2.13,5.95,5.56,5.95s5.55-2.22,5.55-5.95v-20.7c0-3.73-2.08-5.95-5.55-5.95Z" />
    <path
      d="M135.22,38.54c-3.43,0-5.56,2.28-5.56,5.95v20.7c0,3.67,2.13,5.95,5.56,5.95s5.55-2.22,5.55-5.95v-20.7c0-3.73-2.08-5.95-5.55-5.95Z" />
  </g>
</svg>